<?xml version="1.0" encoding="utf-8"?>
<svg version="1.1" id="Calque_1" xmlns="http://www.w3.org/2000/svg" xmlns:xlink="http://www.w3.org/1999/xlink" x="0px" y="0px"
	 viewBox="0 0 500 500" style="enable-background:new 0 0 500 500;" xml:space="preserve" height="45" width="45">
<style type="text/css">
	.st0{fill:none;}
	.st1{fill:#ABC553;}
	.st2{fill:#333333;}
</style>
<g>
	<polygon class="st0" points="149.89,295.93 202.82,295.93 202.82,290.93 202.82,201.17 202.82,130.14 202.82,120.83 161.24,258.38 
			"/>
	<path class="st0" d="M338.18,79.27h-70.89v172.77h70.89c36.53,0,66.25-43.54,66.25-80.06v-12.64
		C404.43,122.81,374.71,79.27,338.18,79.27z"/>
	<path class="st1" d="M338.18,26.31h-70.89h-5.03c-21.36,0-41.54,5.09-59.45,14.08v80.45v9.31v71.03v89.76v5v52.96v124.8h64.48V305
		h70.89c73.35,0,133.03-59.68,133.03-133.03v-12.64C471.21,85.98,411.53,26.31,338.18,26.31z M404.43,171.98
		c0,36.53-29.72,80.06-66.25,80.06h-70.89V79.27h70.89c36.53,0,66.25,43.54,66.25,80.06V171.98z"/>
	<path class="st2" d="M149.89,295.93l11.35-37.55l41.58-137.54V40.38c-25.56,12.83-55.42,40.43-70.76,91.71L28.79,473.69h67.36
		l37.73-124.8h68.94v-52.96H149.89z"/>
</g>
</svg>
